<svg xmlns="http://www.w3.org/2000/svg" viewBox="0 0 100 100">
  <defs>
    <radialGradient id="g" cx="30%" cy="25%" r="70%">
      <stop offset="0%" stop-color="#ffffff" stop-opacity="0.3"/>
      <stop offset="45%" stop-color="#ffffff" stop-opacity="0"/>
    </radialGradient>
  </defs>
  <circle cx="50" cy="50" r="46" fill="#1c1c1c"/>
  <circle cx="50" cy="50" r="46" fill="url(#g)"/>
  <circle cx="50" cy="50" r="46" fill="none" stroke="#4d4d4d" stroke-width="4"/>
  <path fill="#ffd700" d="M40.12 25.33L36.41 30.08L19.45 30.08L19.97 31.96L27.70 31.96C26.14 42.82 23.29 55.49 18.93 64.40L19.84 65.05C21.73 62.84 23.48 60.43 25.11 57.96L25.11 80.19L26.21 80.19C29.46 80.19 31.41 78.70 31.41 78.24L31.41 73.24L36.94 73.24L36.94 77.20L37.98 77.20C40.19 77.20 43.30 75.90 43.37 75.45L43.37 51.07C44.61 50.81 45.45 50.29 45.84 49.84L43.95 48.41C45.13 47.17 46.30 45.87 47.34 44.51L47.34 75.25C47.34 80.65 49.35 81.88 56.44 81.88L64.82 81.88C77.63 81.88 80.75 80.52 80.75 77.46C80.75 76.16 80.22 75.38 78.08 74.60L77.89 63.75L77.17 63.75C75.87 68.75 74.77 72.78 73.98 74.15C73.53 74.93 73.14 75.19 72.10 75.32C70.93 75.38 68.46 75.45 65.34 75.45L57.41 75.45C54.55 75.45 54.03 74.99 54.03 73.56L54.03 58.42L59.55 58.42L59.55 61.41L60.59 61.41C62.61 61.41 65.73 60.24 65.80 59.85L65.80 46.72C66.97 46.52 67.81 46.00 68.20 45.55L61.90 40.74L58.91 43.99L54.88 43.99L49.35 41.78C50.59 39.96 51.76 38.07 52.86 36.25L70.41 36.25C70.02 52.57 69.31 60.69 67.62 62.32C67.09 62.84 66.51 63.03 65.47 63.03C64.23 63.03 60.86 62.77 58.77 62.58L58.71 63.49C61.05 64.01 62.80 64.66 63.78 65.70C64.63 66.54 64.82 67.78 64.82 69.53C68.14 69.53 70.80 69.14 72.75 67.32C75.74 64.46 76.65 56.99 77.11 37.29C78.47 37.10 79.31 36.71 79.77 36.12L73.40 30.73L69.76 34.37L53.90 34.37C55.33 31.70 56.57 29.10 57.54 26.83C59.16 26.76 59.69 26.24 59.95 25.53L49.94 22.60C48.89 29.30 46.17 39.63 42.59 47.37L39.41 44.90L36.28 48.28L32.26 48.28L30.57 47.63C32.65 42.75 34.20 37.49 35.18 31.96L45.19 31.96C46.10 31.96 46.81 31.64 46.95 30.92C44.41 28.65 40.12 25.33 40.12 25.33ZM54.03 45.81L59.55 45.81L59.55 56.53L54.03 56.53ZM31.41 71.35L31.41 50.10L36.94 50.10L36.94 71.35Z"/>
</svg>