<svg xmlns="http://www.w3.org/2000/svg" viewBox="0 0 100 100">
  <defs>
    <radialGradient id="g" cx="30%" cy="25%" r="70%">
      <stop offset="0%" stop-color="#ffffff" stop-opacity="0.3"/>
      <stop offset="45%" stop-color="#ffffff" stop-opacity="0"/>
    </radialGradient>
  </defs>
  <circle cx="50" cy="50" r="46" fill="#1c1c1c"/>
  <circle cx="50" cy="50" r="46" fill="url(#g)"/>
  <circle cx="50" cy="50" r="46" fill="none" stroke="#4d4d4d" stroke-width="4"/>
  <path fill="#ffd700" d="M27.77 63.55C28.03 67.65 25.30 71.22 22.83 72.65C20.68 73.63 19.13 75.58 19.91 78.05C20.82 80.65 24 81.36 26.34 80.00C29.79 77.98 32.19 72.00 28.62 63.49ZM36.03 63.62L35.25 63.81C36.03 67.52 36.22 72.46 35.25 76.68C39.99 82.99 48.38 72.39 36.03 63.62ZM44.73 63.23L44.09 63.62C45.97 66.67 47.73 71.29 47.66 75.19C53.31 80.32 60.01 68.82 44.73 63.23ZM53.97 62.19L53.38 62.64C55.98 64.79 58.91 68.49 59.69 71.74C65.86 75.45 70.22 63.36 53.97 62.19ZM36.61 30.40L47.47 30.40L47.47 38.20L36.61 38.20ZM29.01 28.52L29.01 63.10L30.37 63.10C34.27 63.10 36.61 61.34 36.61 60.82L36.61 59.33L70.02 59.33C69.18 68.43 67.68 74.47 65.99 75.84C65.34 76.29 64.75 76.42 63.72 76.42C62.22 76.42 57.48 76.10 54.55 75.84L54.55 76.75C57.41 77.27 59.88 78.11 61.05 79.28C62.09 80.32 62.35 81.82 62.35 83.83C66.38 83.83 69.05 83.31 71.19 81.75C74.64 79.28 76.52 72.52 77.56 60.56C78.93 60.43 79.71 59.98 80.22 59.46L73.40 53.74L69.44 57.51L55.01 57.51L55.01 49.71L71.97 49.71C72.88 49.71 73.59 49.38 73.79 48.67C71.00 46.26 66.44 42.95 66.44 42.95L62.48 47.89L55.01 47.89L55.01 40.02L71.91 40.02C72.88 40.02 73.53 39.70 73.72 38.98C71.00 36.64 66.44 33.33 66.44 33.33L62.48 38.20L55.01 38.20L55.01 30.40L73.59 30.40C74.50 30.40 75.28 30.08 75.48 29.36C72.56 26.89 67.81 23.38 67.81 23.38L63.65 28.52L37.52 28.52L29.01 25.33ZM36.61 40.02L47.47 40.02L47.47 47.89L36.61 47.89ZM36.61 49.71L47.47 49.71L47.47 57.51L36.61 57.51Z"/>
</svg>