<svg xmlns="http://www.w3.org/2000/svg" viewBox="0 0 100 100">
  <defs>
    <radialGradient id="g" cx="30%" cy="25%" r="70%">
      <stop offset="0%" stop-color="#ffffff" stop-opacity="0.3"/>
      <stop offset="45%" stop-color="#ffffff" stop-opacity="0"/>
    </radialGradient>
  </defs>
  <circle cx="50" cy="50" r="46" fill="#1c1c1c"/>
  <circle cx="50" cy="50" r="46" fill="url(#g)"/>
  <circle cx="50" cy="50" r="46" fill="none" stroke="#4d4d4d" stroke-width="4"/>
  <path fill="#ffd700" d="M47.53 59.78L46.95 60.11C49.42 62.84 51.56 67.13 51.63 70.90C57.87 76.29 64.63 63.29 47.53 59.78ZM76.26 50.16L73.01 56.08L71.45 56.08L71.45 49.32C72.88 49.12 73.53 48.60 73.66 47.63L64.50 46.85C70.34 43.21 74.44 38.40 77.75 32.16C79.25 32.03 80.16 31.77 80.68 31.12L73.40 25.40L69.83 29.10L61.90 29.10C62.80 28.06 63.65 27.02 64.37 25.98C66.19 26.18 66.70 25.85 66.97 25.14L57.02 22.47C54.36 29.36 48.77 37.75 43.37 42.36L43.89 43.01C45.71 42.17 47.59 41.13 49.35 40.02C50.52 41.58 51.37 43.66 51.30 45.55C55.91 49.25 60.98 41.00 51.43 38.59C52.99 37.49 54.55 36.25 55.98 35.02C57.34 36.38 58.52 38.27 58.91 39.96C63.65 42.82 67.42 34.69 57.73 33.46L60.20 30.99L69.56 30.99C64.63 41.84 56.24 48.28 43.17 52.63L43.17 25.66C44.93 25.46 45.45 24.75 45.58 23.84L36.03 22.86L36.03 43.73L29.85 43.73L29.85 27.61C31.54 27.35 32.13 26.83 32.26 26.05L23.22 25.14L23.22 43.01C22.31 43.47 21.34 44.18 20.75 44.83L27.96 48.73L30.24 45.55L36.03 45.55L36.03 54.32L19.39 54.32L19.97 56.14L24.71 56.14C24.65 66.48 24.65 75.58 19.00 83.05L19.77 84.03C30.24 77.40 31.54 67.71 31.93 56.14L36.03 56.14L36.03 84.09L37.39 84.09C40.12 84.09 43.17 82.34 43.17 81.49L43.17 53.28L43.30 53.61C52.08 52.31 58.77 50.16 64.11 47.04L64.11 56.08L43.56 56.08L44.09 57.96L64.11 57.96L64.11 74.86C64.11 75.77 63.78 76.10 62.68 76.10C61.12 76.10 53.12 75.58 53.12 75.58L53.12 76.49C56.76 77.01 58.45 77.85 59.62 78.96C60.73 80.06 61.12 81.69 61.38 84.03C70.22 83.25 71.45 80.32 71.45 75.25L71.45 57.96L80.09 57.96C80.94 57.96 81.53 57.64 81.72 56.92C79.97 54.32 76.26 50.16 76.26 50.16Z"/>
</svg>