<svg xmlns="http://www.w3.org/2000/svg" viewBox="0 0 100 100">
  <defs>
    <radialGradient id="g" cx="30%" cy="25%" r="70%">
      <stop offset="0%" stop-color="#ffffff" stop-opacity="0.3"/>
      <stop offset="45%" stop-color="#ffffff" stop-opacity="0"/>
    </radialGradient>
  </defs>
  <circle cx="50" cy="50" r="46" fill="#1c1c1c"/>
  <circle cx="50" cy="50" r="46" fill="url(#g)"/>
  <circle cx="50" cy="50" r="46" fill="none" stroke="#4d4d4d" stroke-width="4"/>
  <path fill="#ffd700" d="M43.83 22.73L43.37 23.12C45.32 25.33 47.27 28.97 47.47 32.29C54.16 37.49 61.25 24.49 43.83 22.73ZM70.28 28.19L65.80 33.72L21.79 33.72L22.31 35.60L76.59 35.60C77.56 35.60 78.28 35.28 78.41 34.56C75.35 31.90 70.28 28.19 70.28 28.19ZM68.66 39.76L59.30 36.06C58.00 42.10 54.62 50.55 50 55.95L50.59 56.66C54.81 54.45 58.45 51.27 61.31 47.89C63.91 50.75 66.31 54.32 67.36 57.51C73.92 61.47 78.47 49.84 63.20 45.55C64.37 43.92 65.41 42.36 66.25 40.80C67.81 40.87 68.40 40.48 68.66 39.76ZM43.50 39.44L34.20 35.93C32.71 43.79 28.68 53.74 22.12 60.11L22.70 60.82C29.13 57.57 33.95 52.50 37.39 47.24C39.14 49.64 40.70 52.70 41.03 55.62C47.27 60.50 53.70 48.86 38.50 45.42C39.47 43.73 40.31 42.10 41.03 40.48C42.59 40.61 43.17 40.09 43.50 39.44ZM72.43 57.51L67.88 63.23L53.70 63.23L53.70 59.26C55.46 59.00 55.98 58.35 56.11 57.51L45.78 56.53L45.78 63.23L19.45 63.23L19.97 65.11L45.78 65.11L45.78 83.90L47.20 83.90C50.26 83.90 53.70 82.60 53.70 82.08L53.70 65.11L78.93 65.11C79.90 65.11 80.62 64.79 80.81 64.07C77.63 61.34 72.43 57.51 72.43 57.51Z"/>
</svg>