<svg xmlns="http://www.w3.org/2000/svg" viewBox="0 0 100 100">
  <defs>
    <radialGradient id="g" cx="30%" cy="25%" r="70%">
      <stop offset="0%" stop-color="#ffffff" stop-opacity="0.3"/>
      <stop offset="45%" stop-color="#ffffff" stop-opacity="0"/>
    </radialGradient>
  </defs>
  <circle cx="50" cy="50" r="46" fill="#1c1c1c"/>
  <circle cx="50" cy="50" r="46" fill="url(#g)"/>
  <circle cx="50" cy="50" r="46" fill="none" stroke="#4d4d4d" stroke-width="4"/>
  <path fill="#ffd700" d="M73.14 54.84L68.72 51.46C70.67 51.01 72.49 50.16 72.49 49.84L72.49 40.61C73.72 40.35 74.57 39.83 74.96 39.31L67.75 33.98L64.37 37.62L51.56 37.62C55.27 36.25 59.10 34.24 61.96 32.55C63.26 32.48 64.04 32.29 64.56 31.77L58.00 26.05L54.29 29.82L42.27 29.82C43.50 28.65 44.61 27.48 45.58 26.31C47.59 26.18 48.44 25.79 48.64 25.01L38.04 22.86C34.79 29.30 27.45 38.33 19.39 43.79L19.97 44.44C22.83 43.34 25.56 41.97 28.23 40.48L28.23 52.70L29.59 52.70C33.36 52.70 35.64 51.01 35.64 50.49L35.64 49.32L39.92 49.32C35.25 54.19 29.07 58.35 21.73 61.34L22.18 62.19C31.87 59.72 39.80 56.08 45.91 51.27L47.14 53.54C41.36 59.85 30.63 66.41 20.95 69.86L21.34 70.77C31.15 68.75 41.88 64.66 49.28 60.24L49.48 61.15C43.17 68.75 31.41 75.77 20.10 79.22L20.49 80.19C31.15 78.44 42.01 74.47 50 69.73C49.74 72.59 49.16 74.86 48.18 75.97C47.79 76.42 47.14 76.55 46.36 76.55C44.73 76.55 40.19 76.29 37.65 76.10L37.65 76.88C40.12 77.46 42.14 78.31 42.91 79.15C43.76 80.19 44.34 81.62 44.34 83.90C48.96 83.90 52.21 83.25 53.97 81.30C57.61 77.40 58.45 68.23 54.55 59.91L58.00 59.07C60.92 69.47 66.51 75.45 74.64 79.87C75.61 76.29 77.69 73.95 80.55 73.30L80.68 72.59C72.03 70.38 63.59 66.41 59.36 58.74C63.59 57.64 67.68 56.34 70.67 55.23C72.10 55.69 72.69 55.43 73.14 54.84ZM53.84 31.64C52.60 33.59 50.78 35.93 49.03 37.62L36.55 37.62L34.08 36.71C36.35 35.08 38.43 33.33 40.31 31.64ZM35.64 39.50L47.01 39.50C45.58 42.30 43.76 44.96 41.62 47.50L35.64 47.50ZM65.02 39.50L65.02 47.50L50.06 47.50C52.47 45.09 54.42 42.43 56.05 39.50ZM65.02 49.32L65.02 49.90C62.29 52.37 57.80 55.75 53.77 58.35C52.15 55.43 49.94 52.70 47.01 50.36L48.25 49.32Z"/>
</svg>