<svg xmlns="http://www.w3.org/2000/svg" viewBox="0 0 100 100">
  <defs>
    <radialGradient id="g" cx="30%" cy="25%" r="70%">
      <stop offset="0%" stop-color="#ffffff" stop-opacity="0.3"/>
      <stop offset="45%" stop-color="#ffffff" stop-opacity="0"/>
    </radialGradient>
  </defs>
  <circle cx="50" cy="50" r="46" fill="#1c1c1c"/>
  <circle cx="50" cy="50" r="46" fill="url(#g)"/>
  <circle cx="50" cy="50" r="46" fill="none" stroke="#4d4d4d" stroke-width="4"/>
  <path fill="#ffd700" d="M27.45 40.02L27.45 66.80L28.62 66.80C31.80 66.80 35.12 65.11 35.12 64.33L35.12 62.38L45.78 62.38L45.78 70.18L19.64 70.18L20.16 72.00L45.78 72.00L45.78 83.90L47.34 83.90C50.33 83.90 53.64 82.34 53.64 81.62L53.64 72.00L78.53 72.00C79.51 72.00 80.22 71.68 80.42 70.96C77.23 68.30 72.16 64.59 72.16 64.59L67.62 70.18L53.64 70.18L53.64 62.38L64.63 62.38L64.63 64.98L65.93 64.98C68.59 64.98 72.30 63.29 72.36 62.77L72.36 43.14C73.72 42.88 74.57 42.30 75.03 41.78L67.55 36.06L63.98 40.02L53.64 40.02L53.64 33.39L76.65 33.39C77.63 33.39 78.34 33.07 78.53 32.35C75.41 29.75 70.28 26.05 70.28 26.05L65.80 31.57L53.64 31.57L53.64 25.85C55.40 25.59 55.91 24.88 56.05 23.97L45.78 22.93L45.78 31.57L21.73 31.57L22.25 33.39L45.78 33.39L45.78 40.02L35.64 40.02L27.45 36.77ZM45.78 41.84L45.78 50.03L35.12 50.03L35.12 41.84ZM53.64 41.84L64.63 41.84L64.63 50.03L53.64 50.03ZM45.78 60.50L35.12 60.50L35.12 51.92L45.78 51.92ZM53.64 60.50L53.64 51.92L64.63 51.92L64.63 60.50Z"/>
</svg>