<svg xmlns="http://www.w3.org/2000/svg" viewBox="0 0 100 100">
  <defs>
    <radialGradient id="g" cx="30%" cy="25%" r="70%">
      <stop offset="0%" stop-color="#ffffff" stop-opacity="0.3"/>
      <stop offset="45%" stop-color="#ffffff" stop-opacity="0"/>
    </radialGradient>
  </defs>
  <circle cx="50" cy="50" r="46" fill="#e61919"/>
  <circle cx="50" cy="50" r="46" fill="url(#g)"/>
  <circle cx="50" cy="50" r="46" fill="none" stroke="#800000" stroke-width="4"/>
  <path fill="#ffffff" d="M53.12 23.84L53.12 45.61L36.87 45.61L37.39 47.43L53.12 47.43L53.12 78.63L38.69 78.63L39.21 80.52L77.95 80.52C78.86 80.52 79.58 80.19 79.77 79.48C76.78 76.75 71.78 72.91 71.78 72.91L67.36 78.63L61.31 78.63L61.31 47.43L79.12 47.43C80.03 47.43 80.75 47.11 80.94 46.39C77.95 43.79 73.08 39.96 73.08 39.96L68.72 45.61L61.31 45.61L61.31 26.70C63 26.44 63.52 25.79 63.65 24.81ZM32.65 22.86C29.91 35.54 24.39 48.47 19.00 56.60L19.77 57.12C22.44 55.04 24.91 52.70 27.25 50.10L27.25 83.77L28.68 83.77C31.73 83.77 34.86 82.14 34.98 81.56L34.98 43.34C36.22 43.08 36.74 42.62 37 42.04L33.95 40.93C36.48 36.90 38.69 32.35 40.58 27.41C42.07 27.48 42.85 26.89 43.17 26.11Z"/>
</svg>