<svg xmlns="http://www.w3.org/2000/svg" viewBox="0 0 100 100">
  <defs>
    <radialGradient id="g" cx="30%" cy="25%" r="70%">
      <stop offset="0%" stop-color="#ffffff" stop-opacity="0.3"/>
      <stop offset="45%" stop-color="#ffffff" stop-opacity="0"/>
    </radialGradient>
  </defs>
  <circle cx="50" cy="50" r="46" fill="#e61919"/>
  <circle cx="50" cy="50" r="46" fill="url(#g)"/>
  <circle cx="50" cy="50" r="46" fill="none" stroke="#800000" stroke-width="4"/>
  <path fill="#ffffff" d="M55.13 66.93L54.62 67.58C60.73 71.22 68.59 77.85 72.10 83.38C80.68 86.69 82.95 70.05 55.13 66.93ZM39.08 65.05C35.50 71.03 27.90 78.57 19.97 83.18L20.49 83.96C30.50 81.30 39.73 76.10 45.19 70.96C46.62 71.29 47.27 70.96 47.66 70.31ZM56.44 62.25L39.99 62.25L39.99 44.18L56.44 44.18ZM63 22.86C57.87 25.46 48.64 28.78 40.05 31.18L32.52 28.39L32.52 62.25L19.52 62.25L20.04 64.07L78.66 64.07C79.64 64.07 80.36 63.75 80.55 63.03C77.56 60.50 72.56 56.73 72.56 56.73L68.20 62.25L64.11 62.25L64.11 44.18L76 44.18C76.91 44.18 77.63 43.86 77.82 43.14C74.90 40.61 70.02 36.97 70.02 36.97L65.80 42.36L39.99 42.36L39.99 33.33C49.55 32.61 59.55 31.18 66.25 29.69C68.27 30.47 69.69 30.40 70.41 29.75Z"/>
</svg>