<svg xmlns="http://www.w3.org/2000/svg" viewBox="0 0 100 100">
  <defs>
    <radialGradient id="g" cx="30%" cy="25%" r="70%">
      <stop offset="0%" stop-color="#ffffff" stop-opacity="0.3"/>
      <stop offset="45%" stop-color="#ffffff" stop-opacity="0"/>
    </radialGradient>
  </defs>
  <circle cx="50" cy="50" r="46" fill="#e61919"/>
  <circle cx="50" cy="50" r="46" fill="url(#g)"/>
  <circle cx="50" cy="50" r="46" fill="none" stroke="#800000" stroke-width="4"/>
  <path fill="#ffffff" d="M39.53 41.00L39.53 66.15L40.64 66.15C43.76 66.15 47.08 64.46 47.08 63.75L47.08 61.86L53.97 61.86L53.97 70.44L36.87 70.44L37.39 72.26L53.97 72.26L53.97 83.96L55.40 83.96C58.32 83.96 61.63 82.08 61.63 81.23L61.63 72.26L79.51 72.26C80.48 72.26 81.20 71.94 81.33 71.29C78.47 68.62 73.59 64.92 73.59 64.92L69.37 70.44L61.63 70.44L61.63 61.86L68.91 61.86L68.91 65.05L70.15 65.05C72.81 65.05 76.46 63.49 76.52 62.97L76.52 44.12C77.89 43.86 78.80 43.27 79.19 42.75L71.78 37.10L68.20 41.00L61.63 41.00L61.63 34.63L78.60 34.63C79.58 34.63 80.22 34.30 80.42 33.59C77.56 31.05 72.94 27.41 72.94 27.41L68.78 32.81L61.63 32.81L61.63 26.05C63.39 25.79 63.84 25.14 64.04 24.16L53.97 23.19L53.97 32.81L38.30 32.81L38.82 34.63L53.97 34.63L53.97 41.00L47.47 41.00L39.53 37.88ZM53.97 52.31L53.97 60.04L47.08 60.04L47.08 52.31ZM53.97 50.42L47.08 50.42L47.08 42.88L53.97 42.88ZM61.63 52.31L68.91 52.31L68.91 60.04L61.63 60.04ZM61.63 50.42L61.63 42.88L68.91 42.88L68.91 50.42ZM31.61 22.86C29.01 35.41 23.68 48.21 18.41 56.34L19.19 56.86C21.92 54.71 24.52 52.24 26.93 49.38L26.93 83.90L28.36 83.90C31.34 83.90 34.47 82.27 34.59 81.69L34.59 43.47C35.83 43.21 36.35 42.75 36.55 42.17L33.03 40.93C35.50 36.84 37.65 32.35 39.53 27.41C40.97 27.48 41.81 26.89 42.14 26.05Z"/>
</svg>