<svg xmlns="http://www.w3.org/2000/svg" viewBox="0 0 100 100">
  <defs>
    <radialGradient id="g" cx="30%" cy="25%" r="70%">
      <stop offset="0%" stop-color="#ffffff" stop-opacity="0.3"/>
      <stop offset="45%" stop-color="#ffffff" stop-opacity="0"/>
    </radialGradient>
  </defs>
  <circle cx="50" cy="50" r="46" fill="#e61919"/>
  <circle cx="50" cy="50" r="46" fill="url(#g)"/>
  <circle cx="50" cy="50" r="46" fill="none" stroke="#800000" stroke-width="4"/>
  <path fill="#ffffff" d="M55.20 45.61L69.56 45.61L69.56 59.13L55.20 59.13ZM55.20 43.79L55.20 30.40L69.56 30.40L69.56 43.79ZM55.20 60.95L69.56 60.95L69.56 74.99L55.20 74.99ZM47.73 28.65L47.73 83.51L48.96 83.51C52.34 83.51 55.20 81.62 55.20 80.65L55.20 76.88L69.56 76.88L69.56 83.18L70.80 83.18C73.59 83.18 77.17 81.36 77.23 80.78L77.23 31.77C78.60 31.44 79.44 30.92 79.90 30.34L72.62 24.49L68.91 28.65L55.52 28.65L47.73 25.33ZM29.46 23.06L29.46 39.05L20.16 39.05L20.68 40.87L28.55 40.87C26.80 50.42 23.48 60.69 18.67 68.04L19.52 68.75C23.41 65.31 26.73 61.34 29.46 56.92L29.46 83.96L30.95 83.96C33.75 83.96 36.87 82.40 36.87 81.75L36.87 48.08C38.63 50.88 40.31 54.65 40.70 57.83C46.23 62.58 52.47 51.59 36.87 46.59L36.87 40.87L45.26 40.87C46.17 40.87 46.81 40.54 47.01 39.83C44.93 37.49 41.23 33.91 41.23 33.91L37.91 39.05L36.87 39.05L36.87 25.92C38.63 25.66 39.08 25.01 39.21 24.03Z"/>
</svg>