<svg xmlns="http://www.w3.org/2000/svg" viewBox="0 0 100 100">
  <defs>
    <radialGradient id="g" cx="30%" cy="25%" r="70%">
      <stop offset="0%" stop-color="#ffffff" stop-opacity="0.3"/>
      <stop offset="45%" stop-color="#ffffff" stop-opacity="0"/>
    </radialGradient>
  </defs>
  <circle cx="50" cy="50" r="46" fill="#e61919"/>
  <circle cx="50" cy="50" r="46" fill="url(#g)"/>
  <circle cx="50" cy="50" r="46" fill="none" stroke="#800000" stroke-width="4"/>
  <path fill="#ffffff" d="M58.19 23.71L58.19 37.10L53.90 37.10L46.23 34.17L46.23 72.91L47.40 72.91C50.91 72.91 52.99 71.29 52.99 70.83L52.99 38.92L58.19 38.92L58.19 83.77L59.62 83.77C62.29 83.77 65.41 82.01 65.41 81.17L65.41 38.92L70.80 38.92L70.80 64.20C70.80 64.92 70.61 65.31 69.76 65.31C68.91 65.31 65.66 65.11 65.66 65.11L65.66 66.02C67.62 66.41 68.53 67.13 69.05 68.10C69.63 69.14 69.76 70.90 69.83 73.11C76.84 72.46 77.75 69.79 77.75 64.98L77.75 39.96C78.93 39.70 79.84 39.18 80.16 38.72L73.27 33.52L70.15 37.10L65.41 37.10L65.41 26.50C67.16 26.24 67.62 25.59 67.75 24.68ZM28.68 35.54L35.57 35.54L35.57 47.56L28.68 47.56ZM29.27 22.93C29.20 26.05 28.94 30.40 28.68 33.39L21.98 30.79L21.98 82.21L23.22 82.21C26.60 82.21 28.68 80.58 28.68 80.06L28.68 75.84L35.83 75.84L35.83 80.00L36.94 80.00C39.08 80.00 42.46 78.76 42.53 78.24L42.53 61.34C43.76 61.08 44.61 60.56 45.00 60.04L38.37 55.04L35.18 58.42L28.68 58.42L28.68 49.45L35.57 49.45L35.57 52.63L36.67 52.63C38.89 52.63 42.20 51.40 42.27 50.94L42.27 36.58C43.50 36.32 44.34 35.80 44.73 35.34L38.11 30.27L34.92 33.72L31.61 33.72C33.16 31.51 35.31 28.39 36.67 26.24C38.11 26.18 38.95 25.59 39.14 24.55ZM28.68 60.30L35.83 60.30L35.83 74.02L28.68 74.02Z"/>
</svg>