<svg xmlns="http://www.w3.org/2000/svg" viewBox="0 0 100 100">
  <defs>
    <radialGradient id="g" cx="30%" cy="25%" r="70%">
      <stop offset="0%" stop-color="#ffffff" stop-opacity="0.3"/>
      <stop offset="45%" stop-color="#ffffff" stop-opacity="0"/>
    </radialGradient>
  </defs>
  <circle cx="50" cy="50" r="46" fill="#e61919"/>
  <circle cx="50" cy="50" r="46" fill="url(#g)"/>
  <circle cx="50" cy="50" r="46" fill="none" stroke="#800000" stroke-width="4"/>
  <path fill="#ffffff" d="M59.75 61.15L59.16 61.60C61.51 63.49 63.98 66.93 64.50 69.92C69.89 73.43 74.12 62.58 59.75 61.15ZM53.70 63.03L53.05 63.36C54.81 65.89 56.50 69.92 56.63 73.24C61.63 77.59 67.48 67.39 53.70 63.03ZM47.98 64.72L47.14 64.92C47.86 68.17 48.18 72.65 47.40 76.42C51.76 81.95 59.30 72.65 47.98 64.72ZM43.44 64.46L42.66 64.40C42.07 69.53 39.92 73.04 37.26 74.73C31.15 82.79 50.06 86.11 43.44 64.46ZM55.72 57.18L48.12 57.18L48.12 49.38L55.72 49.38ZM40.70 25.14L40.70 63.29L42.01 63.29C45.78 63.29 48.12 61.60 48.12 61.08L48.12 59.00L71.71 59.00C71.13 68.82 70.22 74.67 68.72 75.90C68.20 76.29 67.68 76.42 66.58 76.42C65.28 76.42 61.12 76.23 58.58 76.03L58.52 76.88C61.12 77.40 63.33 78.24 64.37 79.28C65.34 80.19 65.66 81.82 65.66 83.77C69.18 83.83 71.71 83.18 73.66 81.69C76.84 79.28 78.21 72.98 78.80 60.17C80.16 59.98 80.94 59.59 81.46 59.07L74.83 53.54L71.06 57.18L62.94 57.18L62.94 49.38L75.28 49.38C76.26 49.38 76.84 49.06 77.04 48.34C74.57 46.07 70.47 42.75 70.47 42.75L66.84 47.50L62.94 47.50L62.94 39.63L75.28 39.63C76.26 39.63 76.84 39.31 77.04 38.59C74.57 36.32 70.47 33.00 70.47 33.00L66.84 37.81L62.94 37.81L62.94 30.14L76.65 30.14C77.56 30.14 78.21 29.82 78.41 29.10C75.74 26.76 71.32 23.51 71.32 23.51L67.48 28.26L48.96 28.26ZM55.72 47.50L48.12 47.50L48.12 39.63L55.72 39.63ZM55.72 37.81L48.12 37.81L48.12 30.14L55.72 30.14ZM39.99 25.72L29.39 22.86C27.31 35.21 22.89 48.34 18.41 56.73L19.19 57.25C21.73 54.97 24.07 52.37 26.21 49.45L26.21 83.90L27.64 83.90C30.63 83.90 33.75 82.21 33.88 81.69L33.88 42.04C35.12 41.84 35.70 41.45 35.89 40.80L32.32 39.50C34.27 35.67 35.96 31.51 37.45 27.09C38.95 27.09 39.73 26.50 39.99 25.72Z"/>
</svg>