<svg xmlns="http://www.w3.org/2000/svg" viewBox="0 0 100 100">
  <defs>
    <radialGradient id="g" cx="30%" cy="25%" r="70%">
      <stop offset="0%" stop-color="#ffffff" stop-opacity="0.3"/>
      <stop offset="45%" stop-color="#ffffff" stop-opacity="0"/>
    </radialGradient>
  </defs>
  <circle cx="50" cy="50" r="46" fill="#e61919"/>
  <circle cx="50" cy="50" r="46" fill="url(#g)"/>
  <circle cx="50" cy="50" r="46" fill="none" stroke="#800000" stroke-width="4"/>
  <path fill="#ffffff" d="M24.84 37.55L24 37.62C24.20 42.82 22.44 47.11 20.95 48.54C16.46 52.57 20.68 57.25 24.59 54.06C28.09 51.14 27.84 44.77 24.84 37.55ZM59.88 25.40L49.80 22.80C49.09 27.22 47.86 32.94 46.10 38.79L39.86 34.95C39.08 37.42 37.45 41.71 35.83 45.35C35.96 39.63 35.89 33.26 35.96 26.24C37.52 25.98 38.17 25.40 38.37 24.36L28.94 23.51C28.94 52.63 30.63 70.18 19.13 82.47L19.84 83.44C28.48 78.11 32.45 71.16 34.34 61.99C36.35 65.37 38.23 69.47 38.75 73.04C45.00 78.11 50.84 65.89 34.79 59.39C35.31 55.95 35.57 52.24 35.77 48.21C39.21 45.61 42.98 42.23 45.00 40.22L45.58 40.35C44.09 45.22 42.20 50.10 40.12 54.06L40.84 54.65C42.98 52.50 45.00 50.03 46.81 47.43L46.81 74.99C46.81 80.45 48.89 81.62 56.05 81.62L64.56 81.62C77.69 81.62 80.81 80.32 80.81 77.20C80.81 75.97 80.22 75.19 78.15 74.41L77.89 64.20L77.17 64.20C75.87 68.95 74.83 72.72 74.12 74.02C73.66 74.73 73.14 74.99 72.10 75.06C70.93 75.19 68.40 75.19 65.08 75.19L56.95 75.19C54.03 75.19 53.45 74.80 53.45 73.30L53.45 59.13L59.23 59.13L59.23 61.08L60.27 61.08C62.29 61.08 65.41 59.91 65.47 59.46L65.47 45.74C66.64 45.55 67.48 45.03 67.88 44.57L61.57 39.83L58.58 43.01L54.29 43.01L50.59 41.58C51.69 39.57 52.73 37.55 53.70 35.60L70.28 35.60C69.89 52.50 69.18 61.02 67.42 62.64C66.90 63.23 66.31 63.36 65.28 63.36C64.04 63.36 60.59 63.10 58.52 62.97L58.45 63.88C60.79 64.33 62.61 64.98 63.59 66.02C64.43 66.93 64.56 68.17 64.56 69.92C67.94 69.92 70.61 69.53 72.56 67.65C75.61 64.72 76.52 56.92 76.97 36.64C78.34 36.51 79.19 36.06 79.71 35.47L73.27 30.08L69.63 33.72L54.62 33.72C55.72 31.25 56.63 28.91 57.41 26.83C59.10 26.63 59.62 26.11 59.88 25.40ZM53.45 44.83L59.23 44.83L59.23 57.31L53.45 57.31Z"/>
</svg>